<?xml version="1.0" encoding="UTF-8"?>
<svg width="295px" height="110px" viewBox="0 0 295 110" version="1.1" xmlns="http://www.w3.org/2000/svg" xmlns:xlink="http://www.w3.org/1999/xlink">
    <title>logo tbb agency</title>
    <defs>
        <polygon id="path-1" points="0.468701542 0.39381062 15.7618466 0.39381062 15.7618466 25.7405729 0.468701542 25.7405729"></polygon>
    </defs>
    <g id="Top-Menu" stroke="none" stroke-width="1" fill="none" fill-rule="evenodd">
        <g id="Menú-(Open)---Desktop-NEW---Ejemplo-2" transform="translate(-40.000000, -30.000000)">
            <g id="logo-tbb-agency" transform="translate(40.000000, 30.000000)">
                <g id="texto" transform="translate(137.000000, 55.000000)">
                    <path d="M3.03237616,19.3901463 C3.03237616,20.5034455 3.05538405,21.2580315 3.10280847,21.6534089 C3.14976334,22.0492816 3.2901584,22.4079949 3.5244632,22.7290531 C3.9226405,23.224018 4.47389067,23.4712526 5.17727462,23.4712526 C5.85671159,23.4712526 6.61831958,23.2364045 7.46209859,22.7657172 L8.51717452,24.9546607 C7.34518097,25.5987591 6.23141145,25.9203128 5.17727462,25.9203128 C3.60663422,25.9203128 2.39942452,25.351029 1.55564551,24.2134522 C1.11004379,23.6193953 0.834888252,22.9891698 0.729239795,22.3212893 C0.624530435,21.6534089 0.571001883,20.6773521 0.571001883,19.3901463 L0.571001883,0.989246665 L3.03237616,0.989246665 L3.03237616,7.96384112 L7.25174078,7.96384112 L7.25174078,10.2642632 L3.03237616,10.2642632 L3.03237616,19.3901463 Z" id="Fill-1" fill="#252781"></path>
                    <path d="M18.4501413,10.1896316 C17.0718582,10.1896316 16.0067757,10.6226725 15.2548936,11.4882588 C14.9040488,11.9094084 14.6410407,12.4529391 14.4658692,13.1208329 C14.2906978,13.7887266 14.190313,14.4070734 14.1652168,14.9753776 C14.1406225,15.5451682 14.1280744,16.4107546 14.1280744,17.5721366 C14.1280744,18.4139403 14.1406225,19.0441783 14.1652168,19.4648325 C14.190313,19.8854866 14.2721266,20.3611379 14.4096537,20.8932729 C14.546679,21.4254078 14.7539736,21.8638989 15.0300317,22.2102325 C15.7307175,23.0510453 16.7456077,23.4716994 18.0742003,23.4716994 C19.5021738,23.4716994 20.6294949,23.0257763 21.4566655,22.1354165 C21.8572008,21.6904843 22.1643783,21.1464581 22.3776959,20.5033379 C22.5900097,19.8607131 22.7089657,19.3102458 22.7340619,18.8524314 C22.7586562,18.3956079 22.7722081,17.7460466 22.7722081,16.9047383 C22.7722081,15.9901004 22.7586562,15.2850464 22.7340619,14.7900718 C22.7089657,14.2955926 22.6085809,13.7208472 22.4339114,13.0648448 C22.258238,12.4098332 21.9952299,11.8846349 21.6443851,11.4882588 C20.8925031,10.6226725 19.8279224,10.1896316 18.4501413,10.1896316 M18.6378608,7.74101817 C20.7921183,7.74101817 22.4836019,8.47084568 23.7113078,9.93000522 C24.237826,10.5488474 24.6323382,11.2905662 24.8953463,12.1556571 C25.1583544,13.0222343 25.3089316,13.7510709 25.346074,14.3446441 C25.3842202,14.9387128 25.4027914,15.7914169 25.4027914,16.9047383 C25.4027914,17.9432437 25.3771933,18.7538328 25.3275028,19.3350193 C25.2768085,19.9167012 25.0890889,20.6579246 24.7638422,21.5606711 C24.4375917,22.4639132 23.9492197,23.2363511 23.2982244,23.8794714 C21.9199413,25.2400323 20.1787672,25.9203128 18.0742003,25.9203128 C15.7191732,25.9203128 13.9524011,25.1037781 12.7753895,23.4716994 C12.3738503,22.9276732 12.0731979,22.2969398 11.8729303,21.5790035 C11.6726626,20.8620582 11.5592278,20.2253791 11.5346336,19.6684707 C11.5095374,19.1120577 11.4969893,18.2529125 11.4969893,17.0905396 L11.4969893,0.989246665 L14.1280744,0.989246665 L14.1280744,10.0043257 C15.2047012,8.49611466 16.7084653,7.74101817 18.6378608,7.74101817" id="Fill-3" fill="#252781"></path>
                    <path d="M36.3290297,10.1896316 C34.9502447,10.1896316 33.8856641,10.6226725 33.1337821,11.4882588 C32.7829372,11.9094084 32.5199291,12.4529391 32.3447577,13.1208329 C32.1695862,13.7887266 32.0692014,14.4070734 32.0441052,14.9753776 C32.019511,15.5451682 32.0069629,16.4107546 32.0069629,17.5721366 C32.0069629,18.4139403 32.019511,19.0441783 32.0441052,19.4648325 C32.0692014,19.8854866 32.151015,20.3611379 32.2885422,20.8932729 C32.4255674,21.4254078 32.632862,21.8638989 32.9089201,22.2102325 C33.6096059,23.0510453 34.6244961,23.4716994 35.9530887,23.4716994 C37.3810622,23.4716994 38.5083834,23.0257763 39.335554,22.1354165 C39.7355873,21.6904843 40.0432667,21.1464581 40.2565844,20.5033379 C40.4688982,19.8607131 40.5878541,19.3102458 40.6129503,18.8524314 C40.6375446,18.3956079 40.6510966,17.7460466 40.6510966,16.9047383 C40.6510966,15.9901004 40.6375446,15.2850464 40.6129503,14.7900718 C40.5878541,14.2955926 40.4874694,13.7208472 40.3122979,13.0648448 C40.1371265,12.4098332 39.8741183,11.8846349 39.5232735,11.4882588 C38.7713915,10.6226725 37.7068109,10.1896316 36.3290297,10.1896316 M36.5167493,7.74101817 C38.6710067,7.74101817 40.3624903,8.47084568 41.5901962,9.93000522 C42.1167144,10.5488474 42.5112266,11.2905662 42.7742347,12.1556571 C43.0372429,13.0222343 43.18782,13.7510709 43.2249624,14.3446441 C43.2631086,14.9387128 43.2816798,15.7914169 43.2816798,16.9047383 C43.2816798,17.9432437 43.2560817,18.7538328 43.2063912,19.3350193 C43.1556969,19.9167012 42.9679774,20.6579246 42.6427307,21.5606711 C42.3164801,22.4639132 41.8281081,23.2363511 41.1771128,23.8794714 C39.7988298,25.2400323 38.0576557,25.9203128 35.9530887,25.9203128 C33.5980617,25.9203128 31.8312895,25.1037781 30.6542779,23.4716994 C30.2527388,22.9276732 29.9520864,22.2969398 29.7518187,21.5790035 C29.5515511,20.8620582 29.4381163,20.2253791 29.413522,19.6684707 C29.3884258,19.1120577 29.3758777,18.2529125 29.3758777,17.0905396 L29.3758777,0.989246665 L32.0069629,0.989246665 L32.0069629,10.0043257 C33.0835897,8.49611466 34.5868518,7.74101817 36.5167493,7.74101817" id="Fill-5" fill="#252781"></path>
                    <path d="M46.8066365,23.4768791 C47.1702379,23.1113496 47.6503582,22.9285849 48.2480377,22.9285849 C48.8446769,22.9285849 49.3247972,23.1113496 49.6894389,23.4768791 C50.0525201,23.8418863 50.2345809,24.323863 50.2345809,24.9233313 C50.2345809,25.5227996 50.0525201,26.0047763 49.6894389,26.3697835 C49.3247972,26.7342686 48.8446769,26.9175555 48.2480377,26.9175555 C47.6503582,26.9175555 47.1702379,26.7342686 46.8066365,26.3697835 C46.442515,26.0047763 46.2614946,25.5227996 46.2614946,24.9233313 C46.2614946,24.323863 46.442515,23.8418863 46.8066365,23.4768791" id="Fill-7" fill="#252781"></path>
                    <path d="M58.7871932,16.0891553 L67.5070297,16.0891553 L64.9286538,6.70260573 C64.4743277,5.02127817 64.1454199,4.08129234 63.9434412,3.88314116 C63.7404552,3.68548289 63.4755156,3.5864073 63.1471114,3.5864073 C62.8182035,3.5864073 62.5532639,3.68548289 62.3507816,3.88314116 C62.1482993,4.08129234 61.8198951,5.02127817 61.3650653,6.70260573 L58.7871932,16.0891553 Z M63.1471114,0.989246665 C64.2587495,0.989246665 65.1810012,1.33576478 65.9143701,2.02830808 C66.2684623,2.34968761 66.552542,2.7578199 66.7676165,3.25221202 C66.9821874,3.74758998 67.2793629,4.69940573 67.6586396,6.10913801 L73.0798272,25.9203128 L70.1987352,25.9203128 L68.2273027,18.686316 L58.0669202,18.686316 L56.0954876,25.9203128 L53.2143956,25.9203128 L58.6355832,6.10913801 C59.0148599,4.69940573 59.3115318,3.74758998 59.5266063,3.25221202 C59.7411771,2.7578199 60.0252568,2.34968761 60.3793491,2.02830808 C61.1122143,1.33576478 62.0344659,0.989246665 63.1471114,0.989246665 L63.1471114,0.989246665 Z" id="Fill-9" fill="#FF3480"></path>
                    <path d="M83.5896955,10.4145727 C82.1131095,10.4145727 80.9719654,10.8220926 80.166798,11.6371325 C79.7639468,12.057449 79.4622097,12.5816141 79.2610516,13.2115967 C79.0593585,13.8415792 78.9448696,14.3972435 78.9186548,14.8785895 C78.8913701,15.3604277 78.8779952,16.0583302 78.8779952,16.9713127 C78.8779952,17.8857717 78.8913701,18.5890881 78.9186548,19.0832306 C78.9448696,19.5773732 79.0524036,20.1517401 79.2407218,20.8053469 C79.42797,21.4599381 79.7099123,21.9855798 80.0865488,22.3803032 C80.8917161,23.2445605 82.0323253,23.6766891 83.5089113,23.6766891 C84.9849623,23.6766891 86.1266415,23.2445605 86.9318088,22.3803032 C87.3073753,21.9604789 87.5893176,21.4166268 87.7776358,20.7502235 C87.964884,20.0838201 88.072418,19.4666341 88.0997028,18.8976811 C88.1259175,18.3302047 88.1398274,17.4659474 88.1398274,16.3049093 C88.1398274,15.4657529 88.1259175,14.8357703 88.0997028,14.4154539 C88.072418,13.9956296 87.9852138,13.5265879 87.8375552,13.0083289 C87.6898966,12.4895776 87.4684087,12.0692612 87.1736265,11.7483638 C86.3679242,10.8590057 85.1732805,10.4145727 83.5896955,10.4145727 M83.5896955,7.96994519 C86.0592321,7.96994519 87.9787939,8.71066683 89.3478459,10.1926023 C90.072764,10.9830335 90.5221598,11.8103777 90.6971031,12.674635 C90.8709765,13.5393844 90.9587156,14.8731756 90.9587156,16.6755162 L90.9587156,24.2323534 C90.9587156,25.3687828 90.9383858,26.2143375 90.8982612,26.7695096 C90.8581366,27.3251739 90.6971031,27.9792729 90.4151608,28.7332832 C90.1332185,29.4863092 89.6966626,30.1591109 89.1065632,30.7521804 C87.6829417,32.1839141 85.6836657,32.9010114 83.1065951,32.9010114 C80.9585905,32.9010114 78.9989041,32.4560862 77.2270009,31.5672202 L78.3948948,29.3445632 C79.8709458,30.0852848 81.4416909,30.4558917 83.1065951,30.4558917 C84.9587475,30.4558917 86.3138897,29.9489526 87.1736265,28.9370432 C87.6026925,28.4429007 87.8712599,27.8749321 87.9787939,27.2331374 C88.0857929,26.5903583 88.1398274,25.5907532 88.1398274,24.2323534 L88.1398274,23.8617465 C86.9853083,25.3687828 85.3744386,26.1213166 83.3077532,26.1213166 C80.9987151,26.1213166 79.1866873,25.3933915 77.8716698,23.9360648 C77.3077851,23.3188788 76.8851391,22.5781571 76.6031968,21.7134077 C76.3212545,20.8491504 76.160221,20.1207331 76.1200964,19.5276636 C76.0794368,18.9350863 76.0596419,18.0831334 76.0596419,16.9713127 C76.0596419,15.9343024 76.0794368,15.1197547 76.1200964,14.5266852 C76.160221,13.9336157 76.3340943,13.1992923 76.6433214,12.3227307 C76.9514785,11.4461691 77.4014092,10.6990492 77.9925786,10.081371 C79.3878454,8.67375379 81.2539077,7.96994519 83.5896955,7.96994519" id="Fill-11" fill="#FF3480"></path>
                    <path d="M105.017832,13.3064102 C104.963652,12.4818192 104.61443,11.8242015 103.96802,11.3340708 C103.267966,10.7925637 102.272334,10.5218102 100.980051,10.5218102 C99.0955389,10.5218102 97.709379,11.024785 96.8215714,12.0302208 C96.1483397,12.7782609 95.8119921,14.0544503 95.8119921,15.8587889 L99.5268364,15.8587889 C100.980051,15.8587889 101.996068,15.8264218 102.574886,15.7616875 C103.153705,15.6974671 103.645083,15.5233011 104.049022,15.2397035 C104.694896,14.775261 105.017832,14.1315149 105.017832,13.3064102 M96.740569,22.741683 C97.5747326,23.8246972 98.921196,24.3656905 100.77835,24.3656905 C102.581323,24.3656905 104.223902,23.9921842 105.704475,23.2441441 L106.874986,25.5643015 C105.017832,26.4669846 102.985263,26.9175555 100.77835,26.9175555 C97.9518497,26.9175555 95.852225,26.0415881 94.4794761,24.2881122 C93.9950711,23.6695405 93.6378023,22.9415372 93.4092791,22.1035883 C93.1807558,21.2661533 93.0461094,20.5566454 93.0058765,19.9766061 C92.9656435,19.3965667 92.9452588,18.5524527 92.9452588,17.4442641 C92.9452588,16.206607 92.9656435,15.2977588 93.0058765,14.7177194 C93.0461094,14.1376801 93.1737821,13.4805761 93.3894308,12.7453801 C93.6045431,12.0112115 93.9408907,11.3340708 94.3990101,10.7154991 C95.7444007,8.88547235 97.9379022,7.96994519 100.980051,7.96994519 C102.971852,7.96994519 104.587071,8.4472318 105.825174,9.40026372 C107.117457,10.4319015 107.790152,11.7337791 107.844332,13.3064102 C107.844332,14.9047295 107.171101,16.167561 105.825174,17.0959322 C105.286588,17.4571082 104.674511,17.7278617 103.988405,17.9076791 C103.301762,18.088524 102.682174,18.1917905 102.131251,18.2174787 C101.578718,18.2431669 100.710759,18.256011 99.5268364,18.256011 L95.8119921,18.256011 C95.8119921,20.4472137 96.1215177,21.9427803 96.740569,22.741683" id="Fill-13" fill="#FF3480"></path>
                    <path d="M117.777048,7.96994519 C119.868936,7.96994519 121.564405,8.63518425 122.862928,9.96618249 C123.445151,10.5669261 123.881687,11.277416 124.173591,12.0997326 C124.464966,12.9215291 124.630713,13.6335793 124.670302,14.2332827 C124.709891,14.8340264 124.729949,15.7208384 124.729949,16.8952792 L124.729949,26.9175555 L121.948683,26.9175555 L121.948683,16.8952792 C121.948683,15.8773958 121.934959,15.1278966 121.909094,14.6447011 C121.882174,14.1615056 121.782937,13.6398208 121.611384,13.0786067 C121.438776,12.5173925 121.167459,12.0550019 120.796905,11.6888344 C120.028348,10.9320534 119.021729,10.5534029 117.777048,10.5534029 C116.531839,10.5534029 115.52522,10.9320534 114.75772,11.6888344 C114.386638,12.0550019 114.115321,12.5173925 113.94324,13.0786067 C113.770632,13.6398208 113.671395,14.1615056 113.645002,14.6447011 C113.61861,15.1278966 113.605413,15.8773958 113.605413,16.8952792 L113.605413,26.9175555 L110.824147,26.9175555 L110.824147,16.8952792 C110.824147,15.7208384 110.844206,14.8340264 110.883795,14.2332827 C110.923912,13.6335793 111.088602,12.9215291 111.380506,12.0997326 C111.671882,11.277416 112.108945,10.5669261 112.691697,9.96618249 C113.989164,8.63518425 115.684633,7.96994519 117.777048,7.96994519" id="Fill-15" fill="#FF3480"></path>
                    <path d="M139.337442,23.0895011 L140.622295,25.2550157 C139.075256,26.3637181 137.362278,26.9175555 135.483359,26.9175555 C133.342254,26.9175555 131.652981,26.1576988 130.416014,24.6364441 C129.892591,23.9921842 129.49386,23.1860887 129.22077,22.219699 C128.946731,21.2527954 128.792169,20.4538927 128.756611,19.8224769 C128.721052,19.1905474 128.703036,18.3469472 128.703036,17.2891074 C128.703036,16.3355617 128.721052,15.5623472 128.756611,14.9689499 C128.792169,14.3760665 128.940567,13.6095308 129.202753,12.6683155 C129.463991,11.7276139 129.856558,10.9348763 130.380456,10.2901027 C131.616948,8.74315977 133.318548,7.96994519 135.483359,7.96994519 C137.267929,7.96994519 138.896989,8.47291999 140.372436,9.47784206 L139.159175,11.6824027 C138.040737,10.9086743 136.815623,10.5218102 135.483359,10.5218102 C134.103209,10.5218102 133.04451,10.9857389 132.30726,11.9141102 C131.569537,12.8424814 131.201149,14.6344897 131.201149,17.2891074 C131.201149,18.1917905 131.213002,18.8941057 131.236708,19.3970804 C131.25994,19.8995415 131.361874,20.5181131 131.540142,21.2527954 C131.718409,21.9874777 131.986284,22.574196 132.343293,23.0124366 C133.056837,23.9146059 134.103209,24.3656905 135.483359,24.3656905 C136.91092,24.3656905 138.195298,23.9402941 139.337442,23.0895011" id="Fill-17" fill="#FF3480"></path>
                    <g id="Group-21" transform="translate(141.615566, 7.969945)">
                        <mask id="mask-2" fill="white">
                            <use xlink:href="#path-1"></use>
                        </mask>
                        <g id="Clip-20"></g>
                        <path d="M0.468701542,0.39381062 L3.38382885,0.39381062 L7.13715472,12.6302134 C7.69630744,14.4543644 8.06872224,15.5060407 8.25492965,15.7842326 C8.44113705,16.0376851 8.78755709,16.1896556 9.29312876,16.240649 L12.887303,0.39381062 L15.7621119,0.39381062 L11.170057,20.1161494 C10.6910106,22.0927758 10.1451205,23.4221391 9.53291721,24.1067637 C8.52071286,25.1952966 7.22999317,25.7405729 5.65969711,25.7405729 C4.83423067,25.7405729 3.94245106,25.5754754 2.98435826,25.246795 L3.82308734,22.8904947 C4.46181587,23.1187029 5.07401913,23.2323022 5.65969711,23.2323022 C6.35147619,23.2323022 6.92336103,23.017221 7.37641266,22.5865537 C7.77588325,22.206375 8.22840438,20.9148781 8.73450655,18.7100435 C7.58914534,18.5585779 6.7244215,18.1157934 6.13874351,17.3806803 C6.0591677,17.2791983 5.98542744,17.1777163 5.91911427,17.0762344 C5.85227058,16.9752573 5.79922004,16.8803388 5.75943213,16.791479 C5.71964423,16.703124 5.66606318,16.5819515 5.59975,16.4304859 C5.53290632,16.2785154 5.47985577,16.1517892 5.44006787,16.0503072 C5.40027996,15.9493301 5.34033285,15.7716105 5.26022653,15.518158 C5.18065072,15.2652104 5.11380703,15.0622465 5.06075649,14.9102759 C5.00717544,14.7583054 4.92123356,14.4987943 4.80133934,14.1312378 C4.68144511,13.7641861 4.58171009,13.4536815 4.50160377,13.2002291 L0.468701542,0.39381062 Z" id="Fill-19" fill="#FF3480" mask="url(#mask-2)"></path>
                    </g>
                </g>
                <g id="LOGO">
                    <g id="Group-34" transform="translate(0.000000, 24.480700)">
                        <polygon id="Fill-22" fill="#023889" points="62.4067812 53.4614965 40.4876634 34.7304291 62.4067812 25.6079366 84.3210325 34.7304291"></polygon>
                        <polygon id="Fill-24" fill="#6236A5" points="62.4067812 84.6849352 62.4067812 53.4615944 84.3210325 34.730527 84.3210325 54.9516602"></polygon>
                        <polygon id="Fill-26" fill="#D0278A" points="84.3209352 34.7306249 124.823198 0.0077831954 84.3209352 54.9517581"></polygon>
                        <polygon id="Fill-28" fill="#252781" points="62.4067812 84.6849352 62.4067812 53.4425035 40.4925298 34.6967508 40.4925298 54.9178841"></polygon>
                        <polygon id="Fill-30" fill="#007AC1" points="40.4879067 34.7306249 0.000243324058 0.0077831954 40.4879067 54.9517581"></polygon>
                        <path d="M49.880848,20.4693633 C45.98085,22.3363512 42.4224789,22.6794971 40.3624975,22.6794971 C38.4971752,22.6794971 36.7179897,22.4068405 35.4804436,21.9320167 C34.9660565,21.7347445 34.0093063,21.3676126 33.9786475,20.451741 C33.9445821,19.4443312 34.8370947,19.0311855 37.2221572,17.9253843 C37.5496713,17.7736365 37.7516303,16.8009818 37.8771855,15.5453909 L-9.73296233e-05,0.00788109723 L40.4880527,34.7307228 L62.4066838,25.6077408 L49.880848,20.4693633 Z" id="Fill-32" fill="#00A5DC"></path>
                    </g>
                    <g id="pincel" transform="translate(31.711354, 0.000000)">
                        <path d="M63.5734227,1.5582101 C63.5456838,1.42359509 63.5189181,1.29191713 63.4629536,1.16268671 C63.4439743,1.12548402 63.4488408,1.08436525 63.4293749,1.04667305 C63.3909297,0.970309619 63.3203657,0.91842165 63.2707276,0.845974296 C63.2186562,0.772547925 63.1948105,0.683946769 63.1325195,0.61492598 C63.0994274,0.580170831 63.0595223,0.569401629 63.0264302,0.538562553 C62.9344537,0.448492871 62.8293377,0.384367173 62.7217885,0.315346383 C62.6147259,0.246815103 62.5110699,0.177794314 62.3942743,0.131780454 C62.2847785,0.0882141403 62.1738227,0.0720603385 62.0565405,0.0505219361 C61.9295254,0.0245779515 61.8044568,-0.00185554235 61.6740351,5.32907052e-15 C61.5606461,0.000592003375 61.4545568,0.0270254972 61.3406811,0.0470953721 C61.2044197,0.0740183751 61.0720514,0.100451869 60.9416297,0.155766402 C60.9036711,0.171430695 60.8642526,0.168983149 60.8248341,0.189542533 L22.2170925,21.5243091 L29.8740139,31.637568 L63.0152373,3.34687652 C63.0463828,3.3189745 63.0566024,3.27932425 63.0877479,3.25044321 C63.1826443,3.14911482 63.2527216,3.04191232 63.3242589,2.92540914 C63.3870365,2.82359124 63.4517607,2.73107401 63.4940991,2.61848691 C63.5374107,2.50345226 63.55639,2.3879281 63.5787758,2.26750885 C63.6016483,2.14317353 63.6264674,2.0237333 63.6229802,1.89646092 C63.6229802,1.78093676 63.5938619,1.67128671 63.5734227,1.5582101" id="Fill-38" fill="#023889"></path>
                        <path d="M93.1118441,24.4886786 L49.6911525,42.2975108 C42.3919174,44.983937 33.0073952,47.0995955 25.5689787,47.0995955 L24.5304716,47.0995955 L1.7436602,47.0995955 C0.779610283,47.0995955 -7.10542736e-15,47.4755385 -7.10542736e-15,47.9400827 C-7.10542736e-15,48.4051164 0.779610283,48.7815489 1.7436602,48.7815489 L15.9260463,48.7815489 C16.8886362,48.7815489 17.6697065,49.1570024 17.6697065,49.6220361 C17.6697065,50.0865803 16.8886362,50.4639918 15.9260463,50.4639918 L12.9467865,50.4639918 C11.9827366,50.4639918 11.2011797,50.8404244 11.2011797,51.3049685 C11.2011797,51.7695127 11.9827366,52.1454557 12.9467865,52.1454557 L19.2182208,52.1454557 C23.9241081,52.1718892 27.2873332,52.4249655 30.69533,54.3624427 C35.337953,57.001876 38.0237639,57.2588683 47.9805844,57.2843227 L52.6095813,59.2115202 L93.1118441,24.4886786 Z" id="Fill-40" fill="#FF3480"></path>
                        <path d="M21.2119694,21.8131195 C16.1620219,22.2688525 7.34347141,23.5773104 7.34347141,33.9602889 C7.34347141,40.6171238 7.01693053,42.0239731 5.91807908,42.4728529 C5.52438076,42.6339014 4.81290121,42.5918037 3.77390748,42.8904042 C2.09399818,43.3725707 1.86138038,44.2272537 1.86138038,44.9737552 C1.86138038,45.4431944 1.95676341,46.4329819 3.55637577,47.0468264 C7.45442719,48.5427663 21.2966462,47.3405319 29.2475031,32.4261673 L21.2119694,21.8131195 Z" id="Fill-42" fill="#FF3480"></path>
                        <path d="M63.5734227,1.5582101 C63.5456838,1.42359509 63.5189181,1.29191713 63.4629536,1.16268671 C63.4439743,1.12548402 63.4488408,1.08436525 63.4293749,1.04667305 C63.3909297,0.970309619 63.3203657,0.91842165 63.2707276,0.845974296 C63.2186562,0.772547925 63.1948105,0.683946769 63.1325195,0.61492598 C63.0994274,0.580170831 63.0595223,0.569401629 63.0264302,0.538562553 C62.9344537,0.448492871 62.8293377,0.384367173 62.7217885,0.315346383 C62.6147259,0.246815103 62.5110699,0.177794314 62.3942743,0.131780454 C62.2847785,0.0882141403 62.1738227,0.0720603385 62.0565405,0.0505219361 C61.9295254,0.0245779515 61.8044568,-0.00185554235 61.6740351,5.32907052e-15 C61.6570024,5.32907052e-15 61.6404564,0.00352905824 61.6234237,0.00499758568 C61.6141774,0.0397527349 61.606391,0.0749973934 61.5932515,0.109263033 C61.5509131,0.221850137 61.4861889,0.314367365 61.4234113,0.415695758 C61.3523607,0.532198934 61.2822834,0.639890946 61.1869003,0.741219339 C61.1562415,0.76961087 61.1455353,0.80975062 61.1143898,0.837652641 L28.3113868,29.573308 L29.8740139,31.637568 L63.0152373,3.34687652 C63.0463828,3.3189745 63.0566024,3.27932425 63.0877479,3.25044321 C63.1826443,3.14911482 63.2527216,3.04191232 63.3242589,2.92540914 C63.3870365,2.82359124 63.4517607,2.73107401 63.4940991,2.61848691 C63.5374107,2.50345226 63.55639,2.3879281 63.5787758,2.26750885 C63.6016483,2.14317353 63.6264674,2.0237333 63.6225742,1.89646092 C63.6225742,1.78093676 63.5938619,1.67128671 63.5734227,1.5582101" id="Fill-44" fill="#252781"></path>
                        <path d="M23.2731189,24.5355246 C24.8143335,29.1560014 23.4522054,35.8681508 18.2728095,40.2017753 C11.9171851,45.5193131 3.83882634,46.1170038 2.8290315,45.2804326 C2.32875723,44.8658184 2.39786127,44.0992471 2.59398046,43.4315566 C1.97253081,43.8916952 1.86108839,44.4585468 1.86108839,44.9739999 C1.86108839,45.4434392 1.95695807,46.4327372 3.55657043,47.0465816 C7.45462184,48.5430111 21.2968409,47.3407766 29.2472112,32.4259225 L23.2731189,24.5355246 Z" id="Fill-46" fill="#D0278A"></path>
                    </g>
                </g>
            </g>
        </g>
    </g>
</svg>